<svg xmlns="http://www.w3.org/2000/svg" width="780" height="490" viewBox="0 0 780 490">
<style>text{font-family:Arial,Helvetica,sans-serif}.small{font-size:12px;fill:#444}.head{font-size:12px;font-weight:700;fill:#333}.model{font-size:13px;font-weight:700;fill:#111}.cell{font-size:12px;fill:#111}</style>
<rect width="100%" height="100%" fill="#ffffff"/>
<text x="18" y="28" font-size="20" font-weight="700" fill="#111">Creator trajectory across canonical rounds</text>
<text x="18" y="50" class="small">Creator quality is not solver score. Good creator rows stay valid, nonzero, and unsolved.</text>
<text x="18" y="72" class="small">Blue = incumbent shape; amber = separates solvers but too easy at the top; red = too easy; gray = scorer or solvability problem.</text>
<text x="18" y="92" class="head">creator</text>
<text x="250.0" y="92" class="head" text-anchor="middle">Round 1</text>
<text x="446.0" y="92" class="head" text-anchor="middle">Round 2</text>
<text x="642.0" y="92" class="head" text-anchor="middle">Round 3</text>
<line x1="18" x2="762" y1="104" y2="104" stroke="#eeeeee"/>
<text x="18" y="135" class="model">GPT-5.2</text>
<rect x="158" y="111" width="184" height="40" rx="2" fill="#f2c078"/>
<text x="166" y="129" class="cell">partial separator; too</text>
<text x="166" y="143" class="cell">solved</text>
<rect x="354" y="111" width="184" height="40" rx="2" fill="#8ecae6"/>
<text x="362" y="129" class="cell">incumbent: Reimbursement</text>
<text x="362" y="143" class="cell">Forensics</text>
<rect x="550" y="111" width="184" height="40" rx="2" fill="#8ecae6"/>
<text x="558" y="129" class="cell">frozen incumbent still</text>
<text x="558" y="143" class="cell">best</text>
<line x1="18" x2="762" y1="158" y2="158" stroke="#eeeeee"/>
<text x="18" y="189" class="model">GPT-5.4</text>
<rect x="158" y="165" width="184" height="40" rx="2" fill="#f2c078"/>
<text x="166" y="183" class="cell">one low score; too</text>
<text x="166" y="197" class="cell">solved</text>
<rect x="354" y="165" width="184" height="40" rx="2" fill="#f7b7a3"/>
<text x="362" y="183" class="cell">too easy, one zero</text>
<rect x="550" y="165" width="184" height="40" rx="2" fill="#f7b7a3"/>
<text x="558" y="183" class="cell">too easy</text>
<line x1="18" x2="762" y1="212" y2="212" stroke="#eeeeee"/>
<text x="18" y="243" class="model">GPT-5.5</text>
<rect x="158" y="219" width="184" height="40" rx="2" fill="#d96b6b"/>
<text x="166" y="237" class="cell">saturated</text>
<rect x="354" y="219" width="184" height="40" rx="2" fill="#d9d9d9"/>
<text x="362" y="237" class="cell">scorer-contract failure</text>
<rect x="550" y="219" width="184" height="40" rx="2" fill="#f7b7a3"/>
<text x="558" y="237" class="cell">too easy</text>
<line x1="18" x2="762" y1="266" y2="266" stroke="#eeeeee"/>
<text x="18" y="297" class="model">Gemini 3.1 Pro</text>
<rect x="158" y="273" width="184" height="40" rx="2" fill="#f2c078"/>
<text x="166" y="291" class="cell">one low score; too</text>
<text x="166" y="305" class="cell">solved</text>
<rect x="354" y="273" width="184" height="40" rx="2" fill="#d9d9d9"/>
<text x="362" y="291" class="cell">brittle, many zeros</text>
<rect x="550" y="273" width="184" height="40" rx="2" fill="#f2c078"/>
<text x="558" y="291" class="cell">separates, too easy at</text>
<text x="558" y="305" class="cell">top</text>
<line x1="18" x2="762" y1="320" y2="320" stroke="#eeeeee"/>
<text x="18" y="351" class="model">Gemini 3.5 Flash</text>
<rect x="158" y="327" width="184" height="40" rx="2" fill="#f7b7a3"/>
<text x="166" y="345" class="cell">too easy</text>
<rect x="354" y="327" width="184" height="40" rx="2" fill="#d96b6b"/>
<text x="362" y="345" class="cell">saturated</text>
<rect x="550" y="327" width="184" height="40" rx="2" fill="#f2c078"/>
<text x="558" y="345" class="cell">separates, too easy at</text>
<text x="558" y="359" class="cell">top</text>
<line x1="18" x2="762" y1="374" y2="374" stroke="#eeeeee"/>
<text x="18" y="405" class="model">Claude Opus</text>
<rect x="158" y="381" width="184" height="40" rx="2" fill="#d9d9d9"/>
<text x="166" y="399" class="cell">scorer artifact</text>
<rect x="354" y="381" width="184" height="40" rx="2" fill="#d96b6b"/>
<text x="362" y="399" class="cell">saturated</text>
<rect x="550" y="381" width="184" height="40" rx="2" fill="#d96b6b"/>
<text x="558" y="399" class="cell">saturated</text>
</svg>
